PathFileType  4	(X/Y/Z) C:\Users\HPL 1\Documents/Temp/Sub278498/Files_W_HJCs/
DataRate	CameraRate	NumFrames	NumMarkers	Units	OrigDataRate	OrigDataStartFrame	OrigNumFrames
50.0	50.0	6	42	mm	50.0	1	227
Frame#	Time  	r_knee			r_shank(antsup)			r_ankle			r_calc			r_5meta			r_toe			L_knee			L_shank(ant_sup)			L_ankle			L_calc			L_5meta			L_toe			r_mknee			r_mankle			L_mknee			L_mankle			r_sh2			r_sh3			r_sh4			L_sh2			L_sh3			r_thigh1			r_thigh2			r_thigh3			r_thigh4			r_thigh5			L_thigh1			L_thigh2			L_thigh3			L_thigh4			r.ASIS			r.PSIS			L.ASIS			L.PSIS			C7			R_Shoulder			L_Shoulder			Sternum			R_HJC			L_HJC			R_HJC_reg			L_HJC_reg			
		X1	Y1	Z1	X2	Y2	Z2	X3	Y3	Z3	X4	Y4	Z4	X5	Y5	Z5	X6	Y6	Z6	X7	Y7	Z7	X8	Y8	Z8	X9	Y9	Z9	X10	Y10	Z10	X11	Y11	Z11	X12	Y12	Z12	X13	Y13	Z13	X14	Y14	Z14	X15	Y15	Z15	X16	Y16	Z16	X17	Y17	Z17	X18	Y18	Z18	X19	Y19	Z19	X20	Y20	Z20	X21	Y21	Z21	X22	Y22	Z22	X23	Y23	Z23	X24	Y24	Z24	X25	Y25	Z25	X26	Y26	Z26	X27	Y27	Z27	X28	Y28	Z28	X29	Y29	Z29	X30	Y30	Z30	X31	Y31	Z31	X32	Y32	Z32	X33	Y33	Z33	X34	Y34	Z34	X35	Y35	Z35	X36	Y36	Z36	X37	Y37	Z37	X38	Y38	Z38	X39	Y39	Z39	X40	Y40	Z40	X41	Y41	Z41	X42	Y42	Z42	

1	0.00000	771.87170	578.97900	-408.09726	786.39996	491.74826	-403.52188	734.90472	114.08256	-408.86313	646.31927	71.19546	-451.93900	847.10223	39.40536	-382.27618	885.95410	73.73859	-445.03528	765.19012	573.92358	-731.64148	790.39764	456.43893	-733.12762	705.18451	113.32227	-732.18921	629.64191	73.45808	-681.36267	820.98615	42.54174	-777.79071	868.04828	71.14353	-721.34888	769.36194	558.35645	-534.03436	746.76495	120.73658	-504.97183	783.08667	563.13702	-609.44708	736.66718	120.73051	-642.29919	783.39929	371.61618	-400.54404	711.45325	491.34326	-391.35867	701.32751	375.44864	-385.02673	702.78436	476.25766	-751.79645	690.94720	354.26974	-753.38995	839.60266	898.87952	-391.61591	839.33832	783.95941	-395.07480	793.22083	750.54755	-382.64059	726.61035	892.77209	-379.84045	732.05737	775.75031	-392.27802	852.92694	840.49084	-751.36450	854.46729	702.35999	-742.82605	737.59814	839.09583	-770.03113	741.80005	704.02338	-750.99426	861.91840	1095.24023	-445.15314	672.82190	1126.39209	-537.90350	871.10150	1096.69897	-703.28271	681.17059	1125.46375	-620.47168	716.44006	1608.18640	-584.90991	760.71826	1582.86731	-419.73639	784.54102	1577.08630	-761.17334	859.82983	1537.57178	-577.35468	793.51624	1006.29515	-457.41398	800.85913	1007.84842	-693.65936	788.09487	1018.70041	-488.26226	805.24363	1016.79353	-657.86283
2	0.02000	771.92828	578.96265	-408.20190	786.44263	491.77292	-403.56946	734.91333	114.12684	-408.84537	646.34442	71.16306	-451.96573	847.12280	39.40648	-382.29575	885.99323	73.71549	-445.06317	765.28735	573.87408	-731.68329	790.42059	456.39319	-733.13928	705.19690	113.33681	-732.19513	629.64984	73.40968	-681.37738	820.98700	42.54409	-777.81818	868.02130	71.11590	-721.39551	769.40131	558.36261	-534.09326	746.75787	120.77248	-504.99911	783.05737	563.15002	-609.46973	736.59979	120.67226	-642.31873	783.47369	371.60797	-400.65680	711.51068	491.37906	-391.38461	701.33600	375.46390	-385.07974	702.85620	476.25604	-751.87378	691.11377	354.33881	-753.41608	839.68774	898.91321	-391.69476	839.29517	783.91553	-395.16486	793.22156	750.54694	-382.71103	726.68579	892.77509	-379.88217	732.07599	775.75586	-392.33948	853.10376	840.47235	-751.37646	854.65833	702.33295	-742.75452	737.85327	839.30029	-770.02997	741.96240	704.10492	-751.11523	862.02881	1095.23718	-445.23990	672.94598	1126.38464	-537.98358	871.62500	1097.05640	-703.38147	681.39703	1125.45251	-620.60547	716.44910	1608.18079	-585.06738	760.81189	1582.83850	-419.85434	784.71765	1577.14612	-761.35962	859.94824	1537.64209	-577.50854	793.76740	1006.24591	-457.63170	801.32588	1008.11847	-693.86797	788.28922	1018.87136	-488.43576	805.63687	1016.95796	-658.03547
3	0.04000	772.00330	578.96350	-408.25259	786.50208	491.76779	-403.65958	734.91620	114.11618	-408.88654	646.40118	71.10897	-452.01871	847.08868	39.40609	-382.30795	886.01111	73.69657	-445.07687	765.45764	573.87042	-731.76691	790.49261	456.39981	-733.19812	705.25879	113.27950	-732.21490	629.64148	73.35044	-681.40424	820.98834	42.49507	-777.85504	868.05585	71.08456	-721.40790	769.53052	558.34363	-534.17261	746.81152	120.75906	-505.01569	783.05731	563.09436	-609.52759	736.64148	120.63752	-642.38519	783.49469	371.60425	-400.68271	711.55981	491.39133	-391.50586	701.37195	375.51599	-385.09079	702.88000	476.24268	-751.95917	691.05707	354.24319	-753.43939	839.76819	898.85333	-391.74777	839.22925	783.98090	-395.19620	793.33154	750.54272	-382.73923	726.77899	892.77252	-379.99561	732.17639	775.74823	-392.38104	853.26703	840.45673	-751.40710	854.81628	702.32135	-742.74530	738.00867	839.30457	-770.11597	742.73969	704.47180	-751.35388	862.11987	1095.22021	-445.32797	673.05774	1126.37427	-538.08044	871.78131	1097.01160	-703.45007	681.58130	1125.39636	-620.71686	716.53918	1608.09351	-585.25995	760.96234	1582.84851	-419.99030	784.92883	1577.14941	-761.53827	860.06592	1537.74585	-577.68256	793.87622	1006.22944	-457.70429	801.48568	1008.07045	-693.93917	788.32808	1018.90871	-488.54549	805.81869	1016.90201	-658.11801
4	0.06000	772.12140	578.95813	-408.35062	786.60681	491.78867	-403.70291	734.93817	114.11462	-408.89597	646.39099	71.12958	-452.05609	847.09784	39.37837	-382.32382	886.01239	73.69281	-445.06522	765.48407	573.83405	-731.78674	790.50946	456.36292	-733.25085	705.19812	113.28432	-732.22290	629.65723	73.36645	-681.38623	820.98700	42.48308	-777.85205	868.04187	71.09139	-721.43921	769.60004	558.34808	-534.25317	746.81830	120.77871	-505.04318	783.06879	563.13379	-609.60364	736.60278	120.67283	-642.31104	783.55469	371.62442	-400.74808	711.68652	491.39725	-391.61887	701.50366	375.52441	-385.15378	702.89215	476.23868	-751.95380	691.14429	354.24506	-753.53979	839.88538	898.87146	-391.84210	839.46490	783.98547	-395.32068	793.52130	750.58008	-382.85922	726.92139	892.81140	-380.08545	732.29724	775.75745	-392.45911	853.26196	840.47247	-751.49438	854.87250	702.29620	-742.81384	738.02661	839.06311	-770.36023	742.21631	704.14197	-751.30792	862.26385	1095.25842	-445.42871	673.22534	1126.34814	-538.16949	871.83777	1096.96216	-703.61005	681.69495	1125.38062	-620.77301	716.61047	1608.02368	-585.40802	761.08569	1582.85571	-420.13965	785.05884	1577.22107	-761.69006	860.18976	1537.83423	-577.84381	794.04349	1006.25298	-457.78196	801.56819	1008.02301	-694.02010	788.51030	1018.85333	-488.61566	805.90196	1016.86660	-658.23531
5	0.08000	772.26392	578.95886	-408.42047	786.70001	491.78204	-403.74716	734.94745	114.11028	-408.91428	646.40393	71.14412	-451.99652	847.09363	39.41504	-382.30383	886.00525	73.69420	-445.06387	765.51971	573.83057	-731.82739	790.48737	456.32727	-733.29352	705.23755	113.28506	-732.19537	629.62592	73.37527	-681.38934	821.00293	42.49662	-777.82275	868.04669	71.07278	-721.39392	769.64850	558.33044	-534.32953	746.79578	120.77359	-505.04706	783.18140	563.13080	-609.65961	736.64880	120.70274	-642.33215	783.62531	371.62399	-400.76407	711.74622	491.42752	-391.65631	701.57184	375.54385	-385.18353	702.89172	476.20764	-751.97577	691.18604	354.16321	-753.54028	840.00714	898.83014	-391.98276	839.51630	783.94708	-395.40994	793.59436	750.57404	-382.96997	727.00555	892.75757	-380.19211	732.41962	775.75995	-392.51404	853.23871	840.46649	-751.62909	854.87524	702.26965	-742.89819	737.98566	838.98566	-770.47229	742.21082	704.02789	-751.27332	862.41815	1095.21777	-445.62262	673.26147	1126.35413	-538.26111	871.87494	1096.93909	-703.74677	681.68292	1125.38257	-620.95044	716.61267	1608.01843	-585.59058	761.26593	1582.87085	-420.28824	785.11035	1577.26343	-761.82996	860.34570	1537.92712	-578.06689	794.12330	1006.23156	-457.94320	801.57272	1008.01052	-694.18365	788.63324	1018.86003	-488.74851	805.90516	1016.86741	-658.33963
6	0.10000	772.39337	578.97009	-408.45389	786.77802	491.79187	-403.86771	734.95459	114.14864	-408.90842	646.37677	71.22687	-451.97604	847.08728	39.39295	-382.29187	886.01233	73.71471	-445.07611	765.49414	573.91455	-731.89081	790.52606	456.32114	-733.33447	705.19067	113.34409	-732.22272	629.63409	73.39642	-681.34668	820.98798	42.55645	-777.82349	868.04645	71.12365	-721.37061	769.76355	558.30878	-534.40253	746.81244	120.78922	-505.06171	783.18573	563.08746	-609.71472	736.67957	120.69966	-642.31805	783.71796	371.64398	-400.82263	711.89386	491.42181	-391.71152	701.71753	375.57068	-385.21771	702.92358	476.22092	-752.01685	691.18732	354.24356	-753.56799	840.16144	898.85333	-392.08929	839.61951	783.92487	-395.56293	793.71222	750.58411	-383.01511	727.18982	892.73340	-380.30447	732.53131	775.75873	-392.55994	853.21790	840.43695	-751.71094	854.77948	702.31342	-743.07709	737.92517	839.00421	-770.48010	742.68756	704.47858	-751.49463	862.47290	1095.16455	-445.82504	673.39160	1126.42737	-538.31921	871.86627	1096.91150	-703.91998	681.70764	1125.46265	-620.95184	716.69702	1608.02600	-585.68091	761.41803	1582.91125	-420.41653	785.29291	1577.34058	-761.98309	860.44116	1537.98767	-578.21216	794.17301	1006.21625	-458.08127	801.48993	1008.02864	-694.32561	788.71336	1018.87217	-488.86400	805.78080	1016.89222	-658.45519
